<svg xmlns="http://www.w3.org/2000/svg" xmlns:xlink="http://www.w3.org/1999/xlink" width="1024" zoomAndPan="magnify" viewBox="0 0 768 767.999994" height="1024" preserveAspectRatio="xMidYMid meet" version="1.2"><defs><clipPath id="156c2a4e96"><path d="M 497 619 L 636 619 L 636 639.328125 L 497 639.328125 Z M 497 619 "/></clipPath><clipPath id="03d1b53109"><path d="M 360 128.578125 L 453 128.578125 L 453 188 L 360 188 Z M 360 128.578125 "/></clipPath><clipPath id="ac5a08b9df"><path d="M 360 128.578125 L 453 128.578125 L 453 176 L 360 176 Z M 360 128.578125 "/></clipPath></defs><g id="45924e2775"><path style=" stroke:none;fill-rule:nonzero;fill:#d4def9;fill-opacity:1;" d="M 737.976562 601.007812 C 737.976562 601.007812 336.449219 601.007812 157.957031 601.007812 C 145.230469 601.007812 133.5625 601.007812 123.410156 601.007812 C 106.289062 600.707031 89.621094 604.1875 74.621094 598.886719 C 34.46875 583.292969 17.800781 526.058594 44.46875 484.417969 C 74.621094 437.628906 107.957031 397.65625 124.625 346.023438 C 128.867188 334.816406 133.109375 323.308594 137.503906 311.800781 C 148.867188 255.476562 177.808594 214.894531 216.292969 188.546875 C 225.839844 182.039062 235.992188 176.285156 246.75 171.285156 C 257.808594 165.988281 269.171875 161.597656 280.6875 158.113281 C 292.203125 154.632812 304.023438 152.058594 315.992188 150.238281 C 365.085938 142.367188 415.238281 150.390625 459.632812 170.984375 C 470.695312 176.132812 481.453125 182.039062 491.757812 188.699219 C 549.183594 224.132812 580.851562 284.847656 602.667969 349.050781 C 619.335938 397.65625 666.15625 423.546875 702.066406 458.375 C 711.003906 469.125 718.882812 480.480469 725.703125 492.289062 C 732.519531 504.101562 738.128906 516.367188 742.371094 528.933594 C 750.550781 554.070312 748.28125 578.902344 737.976562 601.007812 Z M 737.976562 601.007812 "/><path style=" stroke:none;fill-rule:nonzero;fill:#ffffff;fill-opacity:1;" d="M 704.339844 509.550781 L 697.066406 509.550781 C 695.855469 503.949219 693.582031 498.648438 690.703125 493.804688 L 696.003906 488.503906 C 697.824219 486.6875 697.824219 483.660156 696.003906 481.691406 L 684.488281 470.03125 C 682.671875 468.214844 679.640625 468.214844 677.671875 470.03125 L 672.519531 475.179688 C 667.824219 472.152344 662.519531 469.882812 656.914062 468.519531 L 656.914062 460.949219 C 656.914062 458.222656 654.792969 456.101562 652.0625 456.101562 L 635.546875 456.101562 C 632.820312 456.101562 630.699219 458.222656 630.699219 460.949219 L 630.699219 468.214844 C 625.09375 469.425781 619.789062 471.699219 614.941406 474.574219 L 609.640625 469.277344 C 607.820312 467.457031 604.789062 467.457031 602.820312 469.277344 L 591.152344 480.933594 C 589.335938 482.75 589.335938 485.78125 591.152344 487.75 L 596.304688 492.894531 C 593.273438 497.589844 591 502.890625 589.636719 508.492188 L 582.0625 508.492188 C 579.335938 508.492188 577.214844 510.613281 577.214844 513.335938 L 577.214844 529.84375 C 577.214844 532.566406 579.335938 534.6875 582.0625 534.6875 L 589.335938 534.6875 C 590.546875 540.289062 592.820312 545.589844 595.546875 550.433594 L 590.246094 555.734375 C 588.425781 557.550781 588.425781 560.578125 590.246094 562.546875 L 601.910156 574.207031 C 603.730469 576.023438 606.761719 576.023438 608.730469 574.207031 L 613.882812 569.058594 C 618.578125 572.085938 623.882812 574.359375 629.488281 575.722656 L 629.488281 583.140625 C 629.488281 585.867188 631.609375 587.984375 634.335938 587.984375 L 650.851562 587.984375 C 653.578125 587.984375 655.699219 585.867188 655.699219 583.140625 L 655.699219 575.871094 C 661.308594 574.660156 666.609375 572.390625 671.457031 569.511719 L 676.761719 574.8125 C 678.582031 576.628906 681.609375 576.628906 683.582031 574.8125 L 695.246094 563.152344 C 697.066406 561.335938 697.066406 558.308594 695.246094 556.339844 L 690.097656 551.191406 C 693.125 546.496094 695.398438 541.199219 696.761719 535.597656 L 704.1875 535.597656 C 706.914062 535.597656 709.035156 533.476562 709.035156 530.75 L 709.035156 514.246094 C 709.1875 511.671875 707.066406 509.550781 704.339844 509.550781 Z M 643.425781 552.554688 C 626.609375 552.554688 612.820312 538.925781 612.820312 521.96875 C 612.820312 504.402344 627.667969 490.324219 645.398438 491.535156 C 660.699219 492.59375 672.972656 505.011719 673.882812 520.152344 C 674.945312 537.714844 660.851562 552.554688 643.425781 552.554688 Z M 643.425781 552.554688 "/><path style=" stroke:none;fill-rule:nonzero;fill:#263156;fill-opacity:1;" d="M 333.570312 563.003906 L 440.238281 563.003906 L 440.238281 592.984375 L 333.570312 592.984375 Z M 333.570312 563.003906 "/><path style=" stroke:none;fill-rule:nonzero;fill:#263156;fill-opacity:1;" d="M 646.15625 233.972656 L 646.15625 551.949219 C 646.15625 559.21875 640.246094 565.121094 632.972656 565.121094 L 140.988281 565.121094 C 133.714844 565.121094 127.804688 559.21875 127.804688 551.949219 L 127.804688 233.972656 C 127.804688 226.707031 133.714844 220.800781 140.988281 220.800781 L 632.972656 220.800781 C 640.246094 220.800781 646.15625 226.707031 646.15625 233.972656 Z M 646.15625 233.972656 "/><path style=" stroke:none;fill-rule:nonzero;fill:#263156;fill-opacity:1;" d="M 646.15625 233.972656 L 646.15625 535.445312 L 127.804688 535.445312 L 127.804688 233.972656 C 127.804688 226.707031 133.714844 220.800781 140.988281 220.800781 L 632.972656 220.800781 C 640.246094 220.800781 646.15625 226.707031 646.15625 233.972656 Z M 646.15625 233.972656 "/><path style=" stroke:none;fill-rule:nonzero;fill:#ffffff;fill-opacity:1;" d="M 140.535156 233.972656 L 633.425781 233.972656 L 633.425781 521.515625 L 140.535156 521.515625 Z M 140.535156 233.972656 "/><path style=" stroke:none;fill-rule:nonzero;fill:#263156;fill-opacity:1;" d="M 474.027344 599.492188 L 299.933594 599.492188 L 299.933594 596.464844 C 299.933594 592.984375 302.8125 590.105469 306.296875 590.105469 L 467.511719 590.105469 C 470.996094 590.105469 473.875 592.984375 473.875 596.464844 L 473.875 599.492188 Z M 474.027344 599.492188 "/><path style=" stroke:none;fill-rule:nonzero;fill:#d4def9;fill-opacity:1;" d="M 616.910156 276.671875 L 616.910156 485.929688 C 616.910156 490.472656 613.882812 494.109375 609.941406 494.109375 L 312.054688 494.109375 C 308.265625 494.109375 305.082031 490.472656 305.082031 485.929688 L 305.082031 276.671875 C 305.082031 272.128906 308.113281 268.496094 312.054688 268.496094 L 609.941406 268.496094 C 613.882812 268.496094 616.910156 272.128906 616.910156 276.671875 Z M 616.910156 276.671875 "/><path style=" stroke:none;fill-rule:nonzero;fill:#d4def9;fill-opacity:1;" d="M 289.78125 276.671875 L 289.78125 485.929688 C 289.78125 490.472656 288.417969 494.109375 286.75 494.109375 L 156.746094 494.109375 C 155.078125 494.109375 153.714844 490.472656 153.714844 485.929688 L 153.714844 276.671875 C 153.714844 272.128906 155.078125 268.496094 156.746094 268.496094 L 286.75 268.496094 C 288.417969 268.496094 289.78125 272.128906 289.78125 276.671875 Z M 289.78125 276.671875 "/><g clip-rule="nonzero" clip-path="url(#156c2a4e96)"><path style=" stroke:none;fill-rule:nonzero;fill:#d4def9;fill-opacity:1;" d="M 635.246094 629.171875 C 635.246094 629.5 635.136719 629.824219 634.914062 630.152344 C 634.695312 630.476562 634.363281 630.800781 633.921875 631.121094 C 633.484375 631.441406 632.9375 631.757812 632.285156 632.074219 C 631.628906 632.386719 630.871094 632.695312 630.007812 632.996094 C 629.148438 633.296875 628.183594 633.59375 627.121094 633.882812 C 626.0625 634.171875 624.902344 634.453125 623.652344 634.722656 C 622.402344 634.996094 621.058594 635.257812 619.632812 635.511719 C 618.203125 635.765625 616.691406 636.007812 615.097656 636.238281 C 613.503906 636.46875 611.835938 636.6875 610.09375 636.898438 C 608.355469 637.105469 606.546875 637.300781 604.671875 637.480469 C 602.800781 637.664062 600.871094 637.832031 598.882812 637.984375 C 596.894531 638.140625 594.863281 638.277344 592.78125 638.40625 C 590.699219 638.53125 588.582031 638.640625 586.425781 638.734375 C 584.269531 638.828125 582.085938 638.910156 579.875 638.972656 C 577.667969 639.035156 575.441406 639.085938 573.199219 639.117188 C 570.957031 639.148438 568.707031 639.164062 566.457031 639.164062 C 564.203125 639.164062 561.953125 639.148438 559.714844 639.117188 C 557.472656 639.085938 555.246094 639.035156 553.035156 638.972656 C 550.824219 638.910156 548.644531 638.828125 546.488281 638.734375 C 544.332031 638.640625 542.210938 638.53125 540.128906 638.40625 C 538.050781 638.277344 536.015625 638.140625 534.027344 637.984375 C 532.042969 637.832031 530.109375 637.664062 528.238281 637.480469 C 526.363281 637.300781 524.558594 637.105469 522.816406 636.898438 C 521.074219 636.6875 519.40625 636.46875 517.8125 636.238281 C 516.21875 636.007812 514.710938 635.765625 513.28125 635.511719 C 511.851562 635.257812 510.511719 634.996094 509.257812 634.722656 C 508.007812 634.453125 506.851562 634.171875 505.789062 633.882812 C 504.726562 633.59375 503.765625 633.296875 502.902344 632.996094 C 502.039062 632.695312 501.28125 632.386719 500.628906 632.074219 C 499.972656 631.757812 499.425781 631.441406 498.988281 631.121094 C 498.546875 630.800781 498.21875 630.476562 497.996094 630.152344 C 497.777344 629.824219 497.664062 629.5 497.664062 629.171875 C 497.664062 628.84375 497.777344 628.519531 497.996094 628.191406 C 498.21875 627.867188 498.546875 627.542969 498.988281 627.222656 C 499.425781 626.902344 499.972656 626.582031 500.628906 626.269531 C 501.28125 625.957031 502.039062 625.648438 502.902344 625.347656 C 503.765625 625.042969 504.726562 624.75 505.789062 624.460938 C 506.851562 624.171875 508.007812 623.890625 509.257812 623.621094 C 510.511719 623.347656 511.851562 623.085938 513.28125 622.832031 C 514.710938 622.578125 516.21875 622.335938 517.8125 622.105469 C 519.40625 621.875 521.074219 621.652344 522.816406 621.445312 C 524.558594 621.238281 526.363281 621.042969 528.238281 620.863281 C 530.109375 620.679688 532.042969 620.511719 534.027344 620.359375 C 536.015625 620.203125 538.050781 620.0625 540.128906 619.9375 C 542.210938 619.8125 544.332031 619.703125 546.488281 619.609375 C 548.644531 619.511719 550.824219 619.433594 553.035156 619.371094 C 555.246094 619.304688 557.472656 619.257812 559.714844 619.226562 C 561.957031 619.195312 564.203125 619.179688 566.457031 619.179688 C 568.707031 619.179688 570.957031 619.195312 573.199219 619.226562 C 575.441406 619.257812 577.667969 619.304688 579.875 619.371094 C 582.085938 619.433594 584.269531 619.511719 586.425781 619.609375 C 588.582031 619.703125 590.699219 619.8125 592.78125 619.9375 C 594.863281 620.0625 596.894531 620.203125 598.882812 620.359375 C 600.871094 620.511719 602.800781 620.679688 604.671875 620.863281 C 606.546875 621.042969 608.355469 621.238281 610.09375 621.445312 C 611.835938 621.652344 613.503906 621.875 615.097656 622.105469 C 616.691406 622.335938 618.203125 622.578125 619.632812 622.832031 C 621.058594 623.085938 622.402344 623.347656 623.652344 623.621094 C 624.902344 623.890625 626.0625 624.171875 627.121094 624.460938 C 628.183594 624.75 629.148438 625.042969 630.007812 625.347656 C 630.871094 625.648438 631.628906 625.957031 632.285156 626.269531 C 632.9375 626.582031 633.484375 626.902344 633.921875 627.222656 C 634.363281 627.542969 634.695312 627.867188 634.914062 628.191406 C 635.136719 628.519531 635.246094 628.84375 635.246094 629.171875 Z M 635.246094 629.171875 "/></g><path style=" stroke:none;fill-rule:nonzero;fill:#d4def9;fill-opacity:1;" d="M 168.261719 627.65625 C 168.261719 627.984375 168.152344 628.3125 167.929688 628.636719 C 167.710938 628.960938 167.378906 629.285156 166.941406 629.605469 C 166.5 629.929688 165.953125 630.246094 165.300781 630.558594 C 164.644531 630.871094 163.886719 631.179688 163.023438 631.480469 C 162.164062 631.785156 161.199219 632.078125 160.140625 632.367188 C 159.078125 632.65625 157.917969 632.9375 156.667969 633.210938 C 155.417969 633.480469 154.074219 633.746094 152.648438 633.996094 C 151.21875 634.25 149.707031 634.492188 148.113281 634.722656 C 146.519531 634.957031 144.851562 635.175781 143.109375 635.382812 C 141.371094 635.589844 139.5625 635.785156 137.6875 635.964844 C 135.816406 636.148438 133.886719 636.316406 131.898438 636.472656 C 129.910156 636.625 127.878906 636.765625 125.796875 636.890625 C 123.714844 637.015625 121.597656 637.125 119.441406 637.21875 C 117.285156 637.316406 115.101562 637.394531 112.890625 637.457031 C 110.683594 637.523438 108.457031 637.570312 106.214844 637.601562 C 103.972656 637.636719 101.722656 637.652344 99.472656 637.652344 C 97.21875 637.652344 94.972656 637.636719 92.730469 637.601562 C 90.488281 637.570312 88.261719 637.523438 86.050781 637.457031 C 83.839844 637.394531 81.660156 637.316406 79.503906 637.21875 C 77.347656 637.125 75.226562 637.015625 73.148438 636.890625 C 71.066406 636.765625 69.03125 636.625 67.042969 636.472656 C 65.058594 636.316406 63.128906 636.148438 61.253906 635.964844 C 59.378906 635.785156 57.574219 635.589844 55.832031 635.382812 C 54.089844 635.175781 52.421875 634.957031 50.828125 634.722656 C 49.238281 634.492188 47.726562 634.25 46.296875 633.996094 C 44.867188 633.746094 43.527344 633.480469 42.273438 633.210938 C 41.023438 632.9375 39.867188 632.65625 38.804688 632.367188 C 37.742188 632.078125 36.78125 631.785156 35.917969 631.480469 C 35.054688 631.179688 34.296875 630.871094 33.644531 630.558594 C 32.988281 630.246094 32.441406 629.929688 32.003906 629.605469 C 31.5625 629.285156 31.234375 628.960938 31.011719 628.636719 C 30.792969 628.3125 30.679688 627.984375 30.679688 627.65625 C 30.679688 627.332031 30.792969 627.003906 31.011719 626.679688 C 31.234375 626.351562 31.5625 626.027344 32.003906 625.707031 C 32.441406 625.386719 32.988281 625.070312 33.644531 624.757812 C 34.296875 624.441406 35.054688 624.136719 35.917969 623.832031 C 36.78125 623.53125 37.742188 623.234375 38.804688 622.945312 C 39.867188 622.65625 41.023438 622.378906 42.273438 622.105469 C 43.527344 621.832031 44.867188 621.570312 46.296875 621.316406 C 47.726562 621.066406 49.238281 620.824219 50.828125 620.589844 C 52.421875 620.359375 54.089844 620.140625 55.832031 619.933594 C 57.574219 619.726562 59.378906 619.53125 61.253906 619.347656 C 63.128906 619.167969 65.058594 619 67.042969 618.84375 C 69.03125 618.691406 71.066406 618.550781 73.148438 618.425781 C 75.226562 618.300781 77.347656 618.1875 79.503906 618.09375 C 81.660156 618 83.839844 617.917969 86.050781 617.855469 C 88.261719 617.792969 90.488281 617.746094 92.730469 617.710938 C 94.972656 617.679688 97.21875 617.664062 99.472656 617.664062 C 101.722656 617.664062 103.972656 617.679688 106.214844 617.710938 C 108.457031 617.746094 110.683594 617.792969 112.890625 617.855469 C 115.101562 617.917969 117.285156 618 119.441406 618.09375 C 121.597656 618.1875 123.714844 618.300781 125.796875 618.425781 C 127.878906 618.550781 129.910156 618.691406 131.898438 618.84375 C 133.886719 619 135.816406 619.167969 137.6875 619.347656 C 139.5625 619.53125 141.371094 619.726562 143.109375 619.933594 C 144.851562 620.140625 146.519531 620.359375 148.113281 620.589844 C 149.707031 620.824219 151.21875 621.066406 152.648438 621.316406 C 154.074219 621.570312 155.417969 621.832031 156.667969 622.105469 C 157.917969 622.378906 159.078125 622.65625 160.140625 622.945312 C 161.199219 623.234375 162.164062 623.53125 163.023438 623.832031 C 163.886719 624.136719 164.644531 624.441406 165.300781 624.757812 C 165.953125 625.070312 166.5 625.386719 166.941406 625.707031 C 167.378906 626.027344 167.710938 626.351562 167.929688 626.679688 C 168.152344 627.003906 168.261719 627.332031 168.261719 627.65625 Z M 168.261719 627.65625 "/><path style=" stroke:none;fill-rule:nonzero;fill:#263156;fill-opacity:1;" d="M 211.746094 378.578125 L 205.6875 378.578125 L 205.6875 345.113281 C 205.6875 334.96875 197.351562 326.640625 187.203125 326.640625 C 177.050781 326.640625 168.714844 334.96875 168.714844 345.113281 L 168.714844 350.566406 L 162.65625 350.566406 L 162.65625 345.113281 C 162.65625 331.636719 173.566406 320.582031 187.203125 320.582031 C 200.839844 320.582031 211.746094 331.484375 211.746094 345.113281 Z M 211.746094 378.578125 "/><path style=" stroke:none;fill-rule:nonzero;fill:#3e4d77;fill-opacity:1;" d="M 259.929688 363.433594 L 196.292969 363.433594 C 194.171875 363.433594 192.503906 365.101562 192.503906 367.21875 L 192.503906 417.1875 C 192.503906 419.308594 194.171875 420.972656 196.292969 420.972656 L 259.929688 420.972656 C 262.050781 420.972656 263.71875 419.308594 263.71875 417.1875 L 263.71875 367.21875 C 263.871094 365.101562 262.050781 363.433594 259.929688 363.433594 Z M 225.234375 391.75 L 225.234375 387.511719 C 225.234375 385.84375 226.597656 384.632812 228.113281 384.632812 C 229.777344 384.632812 230.992188 385.996094 230.992188 387.511719 L 230.992188 391.75 C 232.808594 392.808594 234.019531 394.625 234.019531 396.898438 C 234.019531 400.378906 230.992188 403.105469 227.355469 402.804688 C 224.777344 402.5 222.65625 400.53125 222.203125 397.957031 C 221.898438 395.234375 223.113281 392.960938 225.234375 391.75 Z M 225.234375 391.75 "/><path style=" stroke:none;fill-rule:nonzero;fill:#263156;fill-opacity:0.2;" d="M 263.871094 367.21875 L 263.871094 417.1875 C 263.871094 419.308594 262.203125 420.972656 260.082031 420.972656 L 196.445312 420.972656 C 194.324219 420.972656 192.65625 419.308594 192.65625 417.1875 L 192.65625 414.765625 C 207.808594 414.917969 230.382812 414.3125 242.507812 409.3125 C 259.929688 402.199219 259.929688 372.824219 259.324219 363.433594 L 260.082031 363.433594 C 262.050781 363.433594 263.871094 365.101562 263.871094 367.21875 Z M 263.871094 367.21875 "/><path style=" stroke:none;fill-rule:nonzero;fill:#e25469;fill-opacity:1;" d="M 599.03125 537.867188 C 586 528.175781 586 591.167969 589.183594 609.035156 C 592.367188 626.75 596.304688 614.785156 599.488281 586.625 C 602.667969 558.460938 604.183594 541.652344 599.03125 537.867188 Z M 599.03125 537.867188 "/><path style=" stroke:none;fill-rule:nonzero;fill:#e25469;fill-opacity:1;" d="M 587.214844 607.214844 L 586.757812 613.878906 L 597.515625 614.332031 L 597.367188 607.972656 Z M 587.214844 607.214844 "/><path style=" stroke:none;fill-rule:nonzero;fill:#263156;fill-opacity:1;" d="M 597.820312 614.179688 C 597.820312 614.179688 599.789062 618.269531 606.457031 623.570312 C 613.125 628.867188 614.941406 627.808594 615.09375 629.777344 C 615.246094 631.746094 585.242188 629.171875 585.242188 629.171875 L 586.609375 613.273438 C 586.609375 613.425781 597.820312 613.878906 597.820312 614.179688 Z M 597.820312 614.179688 "/><path style=" stroke:none;fill-rule:nonzero;fill:#e25469;fill-opacity:1;" d="M 563.578125 471.847656 C 550.242188 469.578125 550.847656 483.960938 551.152344 495.320312 C 552.363281 513.335938 548.878906 534.382812 555.394531 538.171875 C 572.667969 547.40625 575.394531 478.816406 570.851562 474.878906 C 568.726562 473.0625 567.972656 473.210938 563.578125 471.847656 Z M 563.578125 471.847656 "/><path style=" stroke:none;fill-rule:nonzero;fill:#e25469;fill-opacity:1;" d="M 581 477.148438 C 567.667969 479.269531 572.667969 492.746094 576.757812 503.34375 C 583.578125 520 587.0625 541.046875 594.335938 542.5625 C 613.730469 545.742188 594.335938 479.875 588.878906 477.601562 C 586.152344 476.695312 585.546875 476.996094 581 477.148438 Z M 581 477.148438 "/><path style=" stroke:none;fill-rule:nonzero;fill:#e25469;fill-opacity:1;" d="M 561.457031 538.472656 C 565.546875 522.726562 507.058594 546.496094 491.757812 556.1875 C 476.453125 565.878906 489.027344 564.972656 516.453125 557.25 C 543.878906 549.375 559.941406 544.679688 561.457031 538.472656 Z M 561.457031 538.472656 "/><path style=" stroke:none;fill-rule:nonzero;fill:#e25469;fill-opacity:1;" d="M 491 554.824219 L 484.9375 557.097656 L 488.574219 566.789062 L 494.484375 564.363281 Z M 491 554.824219 "/><path style=" stroke:none;fill-rule:nonzero;fill:#263156;fill-opacity:1;" d="M 489.332031 567.242188 C 489.332031 567.242188 486.300781 570.574219 483.878906 578.75 C 481.453125 586.925781 483.121094 588.289062 481.300781 589.046875 C 479.484375 589.804688 470.542969 561.335938 470.542969 561.335938 L 485.695312 556.644531 C 485.847656 556.644531 489.636719 567.089844 489.332031 567.242188 Z M 489.332031 567.242188 "/><path style=" stroke:none;fill-rule:nonzero;fill:#3e4d77;fill-opacity:1;" d="M 594.335938 478.816406 C 594.335938 478.816406 606.152344 524.542969 607.214844 535.597656 C 608.125 546.648438 599.03125 609.335938 599.03125 609.335938 L 584.941406 608.578125 C 584.941406 608.578125 585.394531 556.1875 587.367188 541.652344 L 574.484375 503.949219 C 574.484375 503.949219 569.789062 536.65625 565.699219 542.410156 C 560.699219 549.527344 494.179688 566.789062 494.179688 566.789062 L 489.636719 554.21875 C 489.636719 554.21875 519.9375 538.171875 548.273438 530.449219 C 548.273438 530.449219 544.332031 478.210938 552.210938 472 C 560.242188 465.792969 594.335938 478.816406 594.335938 478.816406 Z M 594.335938 478.816406 "/><path style=" stroke:none;fill-rule:nonzero;fill:#e25469;fill-opacity:1;" d="M 579.636719 413.855469 C 580.394531 422.789062 626.761719 436.722656 627.367188 430.359375 C 632.820312 421.882812 581.304688 399.320312 579.636719 413.855469 Z M 579.636719 413.855469 "/><path style=" stroke:none;fill-rule:nonzero;fill:#e25469;fill-opacity:1;" d="M 606.910156 413.707031 L 620.09375 419.003906 C 620.09375 419.003906 625.851562 403.558594 627.214844 400.378906 C 628.578125 397.199219 635.09375 382.363281 635.09375 382.363281 L 641.304688 384.480469 C 641.304688 384.480469 637.972656 403.710938 636.457031 409.464844 C 634.941406 415.21875 631.304688 430.359375 625.851562 432.785156 C 620.398438 435.207031 601.757812 427.789062 601.757812 427.789062 Z M 606.910156 413.707031 "/><path style=" stroke:none;fill-rule:nonzero;fill:#e25469;fill-opacity:1;" d="M 623.730469 432.179688 C 625.398438 432.480469 626.910156 431.722656 627.972656 430.359375 C 636.003906 420.671875 644.488281 373.125 641.003906 373.882812 C 638.425781 373.578125 611.761719 430.359375 623.730469 432.179688 Z M 623.730469 432.179688 "/><path style=" stroke:none;fill-rule:nonzero;fill:#e25469;fill-opacity:1;" d="M 641.609375 366.765625 C 641.761719 366.765625 641.761719 366.765625 641.761719 366.917969 L 643.730469 369.039062 C 644.183594 369.1875 644.792969 370.703125 644.792969 371.15625 L 645.09375 373.429688 C 645.246094 375.546875 644.941406 377.515625 644.183594 379.484375 L 641.914062 383.726562 L 641.457031 384.632812 L 640.09375 384.179688 L 636.15625 382.816406 L 635.246094 382.511719 L 635.09375 382.058594 L 633.730469 379.03125 C 633.277344 378.121094 633.125 377.214844 633.277344 376.304688 L 634.640625 372.367188 C 634.640625 372.367188 635.398438 372.824219 635.546875 374.1875 C 635.546875 374.792969 636.003906 375.546875 636.457031 376.304688 L 636.914062 374.035156 L 638.425781 368.433594 C 638.730469 366.917969 640.246094 366.160156 641.609375 366.765625 Z M 641.609375 366.765625 "/><path style=" stroke:none;fill-rule:nonzero;fill:#263156;fill-opacity:1;" d="M 602.0625 428.394531 C 596.757812 426.574219 576.605469 419.003906 578.878906 411.886719 C 581.609375 403.410156 593.730469 408.253906 595.851562 408.859375 C 597.972656 409.464844 607.367188 413.25 607.367188 413.25 Z M 602.0625 428.394531 "/><path style=" stroke:none;fill-rule:nonzero;fill:#3e4d77;fill-opacity:1;" d="M 694.1875 176.585938 L 735.855469 361.164062 C 737.21875 367.371094 733.277344 373.578125 727.066406 375.09375 L 385.390625 452.164062 C 379.175781 453.527344 372.964844 449.589844 371.601562 443.382812 L 329.933594 258.804688 C 328.570312 252.597656 332.507812 246.390625 338.722656 245.027344 L 680.398438 167.957031 C 686.460938 166.441406 692.671875 170.378906 694.1875 176.585938 Z M 694.1875 176.585938 "/><path style=" stroke:none;fill-rule:nonzero;fill:#263156;fill-opacity:0.3;" d="M 479.027344 213.230469 C 486.605469 219.132812 492.363281 227.460938 495.089844 236.546875 C 498.726562 248.507812 497.515625 261.683594 496.300781 274.402344 C 494.785156 289.996094 493.269531 306.351562 501.152344 320.128906 C 505.089844 326.945312 510.847656 332.546875 516.453125 337.84375 C 521.453125 342.691406 526.757812 347.535156 530.546875 353.441406 C 533.574219 358.285156 535.695312 363.890625 537.667969 369.339844 C 538.878906 372.367188 539.941406 375.699219 541.304688 378.726562 C 546.757812 390.839844 555.546875 401.894531 567.214844 411.28125 L 569.335938 410.828125 C 557.363281 401.59375 548.273438 390.386719 542.820312 378.121094 C 541.453125 375.09375 540.242188 371.914062 539.183594 368.886719 C 537.210938 363.433594 535.089844 357.832031 531.910156 352.683594 C 528.121094 346.628906 522.816406 341.632812 517.667969 336.785156 C 512.058594 331.484375 506.453125 326.1875 502.664062 319.523438 C 495.089844 306.199219 496.605469 290.90625 498.121094 274.855469 C 499.332031 261.984375 500.542969 248.660156 496.90625 236.394531 C 494.179688 227.3125 488.574219 219.132812 481.300781 213.078125 Z M 434.632812 223.222656 L 431.453125 223.980469 C 435.238281 224.886719 438.722656 227.007812 441.300781 229.886719 C 445.390625 234.578125 446.90625 241.242188 445.390625 247.296875 C 444.332031 251.539062 441.753906 255.171875 439.179688 258.957031 C 437.210938 261.683594 435.238281 264.710938 433.875 267.890625 C 429.480469 277.882812 431.453125 289.089844 433.269531 299.839844 C 433.421875 301.050781 433.722656 302.109375 433.875 303.171875 C 438.269531 329.214844 435.84375 350.714844 426.453125 366.765625 C 420.84375 376.457031 412.664062 384.480469 404.933594 392.203125 C 398.117188 399.019531 390.390625 406.589844 380.996094 410.675781 C 375.84375 412.949219 370.085938 414.007812 365.085938 414.917969 L 365.390625 416.582031 C 367.511719 416.28125 369.632812 415.824219 371.902344 415.371094 C 375.085938 414.613281 378.417969 413.707031 381.601562 412.34375 C 391.296875 408.253906 399.175781 400.378906 406.148438 393.566406 C 414.027344 385.691406 422.359375 377.667969 427.964844 367.675781 C 437.359375 351.171875 439.9375 329.515625 435.542969 302.867188 C 435.390625 301.808594 435.238281 300.597656 434.9375 299.535156 C 433.117188 288.9375 431.148438 278.035156 435.390625 268.496094 C 436.753906 265.46875 438.722656 262.589844 440.542969 259.867188 C 443.117188 256.082031 445.695312 252.296875 446.90625 247.753906 C 448.726562 241.242188 446.90625 233.972656 442.511719 228.824219 C 440.390625 226.402344 437.664062 224.433594 434.632812 223.222656 Z M 685.246094 230.339844 C 675.851562 233.367188 668.125 239.574219 664.1875 247.753906 C 661.003906 254.113281 659.792969 261.230469 658.730469 268.195312 C 657.671875 275.007812 656.457031 282.125 653.277344 288.332031 C 647.367188 299.839844 635.699219 306.652344 624.488281 313.316406 C 621.761719 314.980469 618.730469 316.648438 616.003906 318.464844 C 607.0625 324.21875 598.730469 330.878906 591.457031 338.601562 C 589.335938 340.875 587.0625 343.449219 585.851562 346.628906 C 584.335938 350.867188 585.394531 355.710938 586.304688 359.347656 C 590.699219 375.246094 600.246094 389.023438 610.246094 401.289062 L 612.0625 400.835938 C 601.910156 388.570312 592.214844 374.640625 587.820312 358.742188 C 586.757812 355.105469 586 350.867188 587.214844 346.929688 C 588.273438 344.054688 590.242188 341.632812 592.367188 339.511719 C 599.636719 331.941406 607.820312 325.277344 616.609375 319.675781 C 619.335938 318.011719 622.214844 316.191406 624.941406 314.527344 C 636.457031 307.714844 648.277344 300.75 654.335938 288.785156 C 657.671875 282.425781 658.730469 275.160156 659.941406 268.195312 C 661.003906 261.378906 662.214844 254.414062 665.246094 248.207031 C 669.035156 240.636719 676.457031 234.578125 685.398438 231.703125 C 692.367188 229.429688 699.792969 229.429688 706.308594 231.398438 L 705.855469 229.582031 C 699.640625 228.066406 692.21875 228.21875 685.246094 230.339844 Z M 549.636719 277.882812 C 551.457031 282.578125 553.425781 287.574219 556.457031 291.816406 C 562.214844 299.6875 572.0625 304.535156 581.609375 304.230469 C 583.121094 304.230469 584.636719 303.929688 586.152344 303.625 C 594.183594 301.808594 601.457031 296.355469 604.941406 289.089844 C 607.214844 284.546875 607.972656 279.398438 608.882812 274.554688 C 609.183594 273.191406 609.335938 271.828125 609.640625 270.464844 C 611.761719 259.109375 616.152344 247.902344 622.519531 238.214844 C 624.640625 234.882812 627.0625 231.550781 629.488281 228.371094 C 633.882812 222.464844 638.425781 216.410156 641.304688 209.59375 C 643.578125 204.445312 645.09375 198.691406 646.304688 190.972656 C 647.0625 186.277344 647.671875 180.824219 646.914062 175.375 L 645.246094 175.679688 C 645.851562 180.824219 645.246094 185.972656 644.640625 190.667969 C 643.425781 198.238281 641.914062 203.839844 639.640625 208.839844 C 636.761719 215.5 632.214844 221.558594 627.972656 227.3125 C 625.546875 230.492188 623.125 233.820312 621.003906 237.152344 C 614.640625 246.996094 610.09375 258.351562 607.972656 270.011719 C 607.667969 271.375 607.515625 272.734375 607.214844 274.097656 C 606.457031 278.945312 605.546875 283.789062 603.425781 288.179688 C 599.488281 296.355469 590.699219 301.960938 581.457031 302.414062 C 572.363281 302.867188 563.121094 298.175781 557.667969 290.753906 C 554.789062 286.667969 552.820312 281.972656 551 277.277344 C 548.726562 271.375 546.304688 265.316406 541.757812 260.621094 C 539.636719 258.351562 536.910156 256.535156 534.484375 254.71875 C 531.910156 252.902344 529.332031 251.082031 527.210938 248.8125 C 522.515625 243.816406 520.546875 236.699219 519.332031 231.855469 C 518.273438 227.3125 517.667969 222.617188 516.910156 218.074219 C 516.300781 213.835938 515.542969 209.445312 514.636719 205.054688 L 512.96875 205.355469 C 513.878906 209.59375 514.636719 213.988281 515.242188 218.226562 C 516 222.769531 516.605469 227.460938 517.667969 232.15625 C 518.878906 237.152344 520.847656 244.574219 525.847656 249.871094 C 528.121094 252.296875 530.847656 254.113281 533.425781 256.082031 C 535.847656 257.746094 538.425781 259.5625 540.394531 261.683594 C 545.089844 266.226562 547.363281 271.980469 549.636719 277.882812 Z M 549.636719 277.882812 "/><path style=" stroke:none;fill-rule:nonzero;fill:#d4def9;fill-opacity:1;" d="M 434.332031 331.183594 L 381.296875 343.144531 C 379.328125 343.597656 377.511719 342.386719 377.054688 340.417969 L 369.78125 308.320312 C 369.328125 306.351562 370.539062 304.535156 372.511719 304.078125 L 425.542969 292.117188 C 427.511719 291.664062 429.328125 292.875 429.785156 294.84375 L 437.058594 326.945312 C 437.511719 328.910156 436.300781 330.730469 434.332031 331.183594 Z M 434.332031 331.183594 "/><path style=" stroke:none;fill-rule:nonzero;fill:#263156;fill-opacity:1;" d="M 411.601562 308.015625 L 431.601562 303.472656 L 431.300781 301.960938 L 410.542969 306.652344 L 408.875 309.984375 L 408.722656 309.226562 L 402.664062 310.589844 L 399.785156 298.023438 L 398.117188 298.324219 L 400.996094 310.894531 L 394.933594 312.257812 L 395.085938 312.863281 L 392.207031 310.589844 L 371.296875 315.285156 L 371.601562 316.796875 L 391.753906 312.257812 L 395.542969 315.132812 L 396.296875 318.3125 L 373.269531 323.460938 L 373.570312 324.976562 L 396.601562 319.828125 L 397.359375 323.007812 L 395.238281 327.246094 L 375.085938 331.789062 L 375.390625 333.304688 L 396.296875 328.609375 L 397.964844 325.429688 L 398.117188 326.035156 L 404.179688 324.671875 L 407.058594 337.695312 L 408.722656 337.390625 L 405.84375 324.371094 L 411.90625 323.007812 L 411.753906 322.25 L 414.632812 324.671875 L 435.390625 319.976562 L 435.085938 318.464844 L 415.085938 323.007812 L 411.300781 319.976562 L 410.691406 316.949219 L 433.722656 311.800781 L 433.421875 310.289062 L 410.390625 315.4375 L 409.785156 312.40625 Z M 409.785156 321.644531 L 399.480469 323.914062 L 397.207031 313.617188 L 407.511719 311.347656 Z M 409.785156 321.644531 "/><path style=" stroke:none;fill-rule:nonzero;fill:#d4def9;fill-opacity:1;" d="M 393.269531 372.824219 C 397.664062 371.761719 399.933594 374.941406 400.996094 379.484375 C 402.054688 384.027344 401.449219 387.8125 396.90625 388.871094 C 392.511719 389.933594 390.238281 386.753906 389.175781 382.058594 C 388.117188 377.515625 388.722656 373.882812 393.269531 372.824219 Z M 393.875 375.699219 C 391.296875 376.304688 391.601562 378.878906 392.207031 381.453125 C 392.8125 384.332031 393.722656 386.601562 396.296875 385.996094 C 398.875 385.390625 398.570312 382.96875 397.964844 380.089844 C 397.207031 377.515625 396.449219 375.09375 393.875 375.699219 Z M 393.875 375.699219 "/><path style=" stroke:none;fill-rule:nonzero;fill:#d4def9;fill-opacity:1;" d="M 407.207031 369.644531 C 411.601562 368.582031 413.875 371.761719 414.9375 376.304688 C 415.996094 380.847656 415.390625 384.632812 410.84375 385.691406 C 406.449219 386.753906 404.179688 383.574219 403.117188 378.878906 C 402.054688 374.335938 402.664062 370.703125 407.207031 369.644531 Z M 407.8125 372.519531 C 405.238281 373.125 405.542969 375.699219 406.148438 378.273438 C 406.753906 381.152344 407.664062 383.421875 410.238281 382.816406 C 412.8125 382.210938 412.511719 379.789062 411.90625 376.910156 C 411.300781 374.335938 410.390625 371.914062 407.8125 372.519531 Z M 407.8125 372.519531 "/><path style=" stroke:none;fill-rule:nonzero;fill:#d4def9;fill-opacity:1;" d="M 421.148438 366.464844 C 425.542969 365.402344 427.816406 368.582031 428.875 373.125 C 429.9375 377.667969 429.332031 381.453125 424.785156 382.511719 C 420.390625 383.574219 418.117188 380.394531 417.058594 375.851562 C 416.148438 371.308594 416.753906 367.523438 421.148438 366.464844 Z M 421.90625 369.339844 C 419.328125 369.945312 419.632812 372.519531 420.238281 375.09375 C 420.84375 377.972656 421.753906 380.242188 424.328125 379.636719 C 426.90625 379.03125 426.601562 376.609375 425.996094 373.730469 C 425.238281 371.15625 424.328125 368.734375 421.90625 369.339844 Z M 421.90625 369.339844 "/><path style=" stroke:none;fill-rule:nonzero;fill:#d4def9;fill-opacity:1;" d="M 435.238281 363.285156 C 439.632812 362.222656 441.90625 365.402344 442.96875 369.945312 C 444.027344 374.488281 443.421875 378.273438 438.875 379.332031 C 434.480469 380.394531 432.207031 377.214844 431.148438 372.671875 C 430.085938 368.128906 430.695312 364.34375 435.238281 363.285156 Z M 435.84375 366.160156 C 433.269531 366.765625 433.574219 369.339844 434.179688 371.914062 C 434.785156 374.792969 435.695312 377.0625 438.269531 376.457031 C 440.84375 375.851562 440.542969 373.429688 439.9375 370.550781 C 439.332031 367.976562 438.421875 365.554688 435.84375 366.160156 Z M 435.84375 366.160156 "/><path style=" stroke:none;fill-rule:nonzero;fill:#d4def9;fill-opacity:1;" d="M 461.300781 360.710938 L 459.179688 361.164062 L 458.574219 358.4375 L 463.726562 357.226562 L 467.363281 372.972656 L 464.179688 373.730469 Z M 461.300781 360.710938 "/><path style=" stroke:none;fill-rule:nonzero;fill:#d4def9;fill-opacity:1;" d="M 469.179688 358.890625 L 467.058594 359.347656 L 466.453125 356.621094 L 471.605469 355.410156 L 475.242188 371.15625 L 472.058594 371.914062 Z M 469.179688 358.890625 "/><path style=" stroke:none;fill-rule:nonzero;fill:#d4def9;fill-opacity:1;" d="M 476.90625 357.226562 L 474.785156 357.679688 L 474.179688 354.957031 L 479.332031 353.746094 L 482.96875 369.492188 L 479.785156 370.25 Z M 476.90625 357.226562 "/><path style=" stroke:none;fill-rule:nonzero;fill:#d4def9;fill-opacity:1;" d="M 484.785156 355.410156 L 482.664062 355.863281 L 482.058594 353.136719 L 487.210938 351.925781 L 490.847656 367.675781 L 487.664062 368.433594 Z M 484.785156 355.410156 "/><path style=" stroke:none;fill-rule:nonzero;fill:#d4def9;fill-opacity:1;" d="M 508.574219 361.164062 C 511.453125 357.378906 514.636719 353.746094 513.878906 350.714844 C 513.574219 349.351562 512.667969 348.445312 511.152344 348.898438 C 509.636719 349.203125 509.179688 350.414062 509.484375 352.078125 L 506.605469 352.683594 C 505.847656 349.050781 507.816406 346.777344 510.695312 346.171875 C 514.03125 345.417969 516.300781 347.082031 516.910156 349.808594 C 517.667969 353.441406 514.789062 357.074219 512.816406 359.800781 L 519.179688 358.285156 L 519.789062 360.859375 L 509.03125 363.285156 Z M 508.574219 361.164062 "/><path style=" stroke:none;fill-rule:nonzero;fill:#d4def9;fill-opacity:1;" d="M 521 358.285156 C 523.878906 354.5 527.058594 350.867188 526.304688 347.839844 C 526 346.476562 525.089844 345.566406 523.574219 346.023438 C 522.058594 346.324219 521.605469 347.535156 521.910156 349.203125 L 519.03125 349.808594 C 518.273438 346.171875 520.242188 343.902344 523.121094 343.296875 C 526.453125 342.539062 528.726562 344.203125 529.332031 346.929688 C 530.089844 350.566406 527.210938 354.199219 525.242188 356.925781 L 531.605469 355.410156 L 532.210938 357.984375 L 521.453125 360.40625 Z M 521 358.285156 "/><path style=" stroke:none;fill-rule:nonzero;fill:#d4def9;fill-opacity:1;" d="M 533.425781 355.5625 C 536.304688 351.777344 539.484375 348.140625 538.726562 345.113281 C 538.425781 343.75 537.515625 342.84375 536 343.296875 C 534.484375 343.597656 534.03125 344.8125 534.332031 346.476562 L 531.453125 347.082031 C 530.695312 343.449219 532.667969 341.175781 535.546875 340.570312 C 538.878906 339.8125 541.152344 341.480469 541.757812 344.203125 C 542.515625 347.839844 539.636719 351.472656 537.667969 354.199219 L 544.03125 352.683594 L 544.636719 355.257812 L 533.878906 357.679688 Z M 533.425781 355.5625 "/><path style=" stroke:none;fill-rule:nonzero;fill:#d4def9;fill-opacity:1;" d="M 545.847656 352.683594 C 548.726562 348.898438 551.910156 345.265625 551.152344 342.238281 C 550.847656 340.875 549.941406 339.964844 548.425781 340.417969 C 546.910156 340.722656 546.453125 341.933594 546.757812 343.597656 L 543.878906 344.203125 C 543.121094 340.570312 545.089844 338.300781 547.96875 337.695312 C 551.304688 336.9375 553.578125 338.601562 554.183594 341.328125 C 554.941406 344.960938 552.0625 348.597656 550.089844 351.320312 L 556.457031 349.808594 L 557.0625 352.382812 L 546.304688 354.804688 Z M 545.847656 352.683594 "/><path style=" stroke:none;fill-rule:nonzero;fill:#d4def9;fill-opacity:1;" d="M 576.152344 331.484375 C 579.335938 330.730469 581.609375 332.242188 582.0625 334.515625 C 582.515625 336.484375 581.609375 337.996094 580.546875 338.601562 L 580.546875 338.753906 C 582.214844 338.90625 583.578125 339.964844 584.03125 342.085938 C 584.636719 344.660156 583.273438 346.929688 579.941406 347.6875 C 576.757812 348.445312 574.03125 347.386719 573.273438 344.054688 L 576.152344 343.449219 C 576.457031 344.8125 577.667969 345.566406 579.335938 345.265625 C 580.851562 344.960938 581.457031 343.75 581.152344 342.539062 C 580.699219 340.722656 579.484375 340.417969 577.214844 340.875 L 576.605469 341.023438 L 576 338.601562 L 576.605469 338.449219 C 578.425781 337.996094 579.636719 337.238281 579.183594 335.726562 C 578.878906 334.515625 577.972656 333.910156 576.605469 334.210938 C 575.09375 334.515625 574.789062 335.574219 574.789062 336.632812 L 571.757812 337.238281 C 571.457031 334.210938 573.121094 332.089844 576.152344 331.484375 Z M 576.152344 331.484375 "/><path style=" stroke:none;fill-rule:nonzero;fill:#d4def9;fill-opacity:1;" d="M 589.183594 328.609375 C 592.367188 327.851562 594.636719 329.367188 595.09375 331.636719 C 595.546875 333.605469 594.636719 335.121094 593.578125 335.726562 L 593.578125 335.878906 C 595.246094 336.027344 596.609375 337.089844 597.0625 339.207031 C 597.667969 341.78125 596.304688 344.054688 592.972656 344.8125 C 589.789062 345.566406 587.0625 344.507812 586.304688 341.175781 L 589.183594 340.570312 C 589.488281 341.933594 590.699219 342.691406 592.367188 342.386719 C 593.878906 342.085938 594.488281 340.875 594.183594 339.664062 C 593.730469 337.84375 592.515625 337.542969 590.246094 337.996094 L 589.636719 338.148438 L 589.03125 335.726562 L 589.636719 335.574219 C 591.457031 335.121094 592.667969 334.363281 592.214844 332.847656 C 591.910156 331.636719 591 331.03125 589.636719 331.335938 C 588.121094 331.636719 587.820312 332.699219 587.820312 333.757812 L 584.789062 334.363281 C 584.488281 331.335938 586.152344 329.214844 589.183594 328.609375 Z M 589.183594 328.609375 "/><path style=" stroke:none;fill-rule:nonzero;fill:#d4def9;fill-opacity:1;" d="M 602.214844 325.582031 C 605.394531 324.824219 607.667969 326.335938 608.125 328.609375 C 608.578125 330.578125 607.667969 332.089844 606.609375 332.699219 L 606.609375 332.847656 C 608.273438 333 609.640625 334.058594 610.09375 336.179688 C 610.699219 338.753906 609.335938 341.023438 606.003906 341.78125 C 602.820312 342.539062 600.09375 341.480469 599.335938 338.148438 L 602.214844 337.542969 C 602.515625 338.90625 603.730469 339.664062 605.394531 339.359375 C 606.910156 339.058594 607.515625 337.84375 607.214844 336.632812 C 606.761719 334.816406 605.546875 334.515625 603.273438 334.96875 L 602.667969 335.121094 L 602.0625 332.699219 L 602.667969 332.546875 C 604.488281 332.089844 605.699219 331.335938 605.246094 329.820312 C 604.941406 328.609375 604.03125 328.003906 602.667969 328.304688 C 601.152344 328.609375 600.851562 329.667969 600.851562 330.730469 L 597.820312 331.335938 C 597.367188 328.304688 599.183594 326.335938 602.214844 325.582031 Z M 602.214844 325.582031 "/><path style=" stroke:none;fill-rule:nonzero;fill:#d4def9;fill-opacity:1;" d="M 615.246094 322.703125 C 618.425781 321.945312 620.699219 323.460938 621.152344 325.730469 C 621.609375 327.699219 620.699219 329.214844 619.640625 329.820312 L 619.640625 329.972656 C 621.304688 330.125 622.667969 331.183594 623.125 333.304688 C 623.730469 335.878906 622.367188 338.148438 619.03125 338.90625 C 615.851562 339.664062 613.125 338.601562 612.367188 335.269531 L 615.246094 334.664062 C 615.546875 336.027344 616.761719 336.785156 618.425781 336.484375 C 619.941406 336.179688 620.546875 334.96875 620.246094 333.757812 C 619.789062 331.941406 618.578125 331.636719 616.304688 332.089844 L 615.699219 332.242188 L 615.09375 329.820312 L 615.699219 329.667969 C 617.519531 329.214844 618.730469 328.457031 618.273438 326.945312 C 617.972656 325.730469 617.0625 325.125 615.699219 325.429688 C 614.183594 325.730469 613.882812 326.792969 613.882812 327.851562 L 610.851562 328.457031 C 610.394531 325.429688 612.0625 323.308594 615.246094 322.703125 Z M 615.246094 322.703125 "/><path style=" stroke:none;fill-rule:nonzero;fill:#d4def9;fill-opacity:1;" d="M 648.730469 328.910156 L 641.15625 330.578125 L 640.546875 328.15625 L 645.398438 316.496094 L 648.882812 315.738281 L 651.15625 325.582031 L 653.125 325.125 L 653.730469 327.699219 L 651.761719 328.15625 L 652.519531 331.183594 L 649.488281 331.941406 Z M 648.277344 326.1875 L 646.761719 319.523438 L 643.882812 327.09375 Z M 648.277344 326.1875 "/><path style=" stroke:none;fill-rule:nonzero;fill:#d4def9;fill-opacity:1;" d="M 663.125 325.582031 L 655.550781 327.246094 L 654.941406 324.824219 L 659.792969 313.011719 L 663.277344 312.257812 L 665.550781 322.097656 L 667.519531 321.644531 L 668.125 324.21875 L 666.15625 324.671875 L 666.914062 327.699219 L 663.882812 328.457031 Z M 662.671875 323.007812 L 661.15625 316.34375 L 658.277344 323.914062 Z M 662.671875 323.007812 "/><path style=" stroke:none;fill-rule:nonzero;fill:#d4def9;fill-opacity:1;" d="M 677.367188 322.402344 L 669.792969 324.066406 L 669.1875 321.644531 L 674.035156 309.984375 L 677.519531 309.226562 L 679.792969 319.070312 L 681.761719 318.617188 L 682.367188 321.191406 L 680.398438 321.644531 L 681.15625 324.671875 L 678.125 325.429688 Z M 676.914062 319.675781 L 675.398438 313.011719 L 672.519531 320.582031 Z M 676.914062 319.675781 "/><path style=" stroke:none;fill-rule:nonzero;fill:#d4def9;fill-opacity:1;" d="M 691.761719 319.222656 L 684.1875 320.886719 L 683.582031 318.464844 L 688.429688 306.804688 L 691.914062 306.046875 L 694.1875 315.890625 L 696.15625 315.4375 L 696.761719 318.011719 L 694.792969 318.464844 L 695.550781 321.492188 L 692.519531 322.25 Z M 691.308594 316.496094 L 689.792969 309.832031 L 686.914062 317.402344 Z M 691.308594 316.496094 "/><path style=" stroke:none;fill-rule:nonzero;fill:#d4def9;fill-opacity:1;" d="M 399.738281 411.59375 L 456.496094 398.800781 L 458.03125 405.59375 L 401.269531 418.386719 Z M 399.738281 411.59375 "/><path style=" stroke:none;fill-rule:nonzero;fill:#d4def9;fill-opacity:1;" d="M 623.566406 361.125 L 701.609375 343.535156 L 705.742188 361.851562 L 627.703125 379.4375 Z M 623.566406 361.125 "/><path style=" stroke:none;fill-rule:nonzero;fill:#d4def9;fill-opacity:1;" d="M 621.152344 212.320312 C 624.183594 211.714844 626.910156 212.625 628.425781 215.199219 L 625.246094 215.953125 C 624.335938 214.742188 622.972656 214.441406 621.609375 214.742188 C 619.183594 215.347656 617.972656 217.316406 618.578125 220.042969 C 619.183594 222.769531 621.304688 224.132812 623.578125 223.527344 C 625.09375 223.222656 626.003906 222.3125 626.457031 220.800781 L 629.640625 220.042969 C 629.335938 223.070312 627.214844 225.191406 624.335938 225.796875 C 620.398438 226.707031 616.910156 224.433594 616.003906 220.496094 C 614.941406 216.710938 617.214844 213.078125 621.152344 212.320312 Z M 621.152344 212.320312 "/><path style=" stroke:none;fill-rule:nonzero;fill:#d4def9;fill-opacity:1;" d="M 640.546875 219.589844 L 635.246094 220.800781 L 634.941406 223.527344 L 632.0625 224.132812 L 633.882812 209.59375 L 637.0625 208.839844 L 644.941406 221.253906 L 642.0625 221.859375 Z M 636.15625 212.320312 L 635.546875 218.378906 L 639.488281 217.46875 Z M 636.15625 212.320312 "/><path style=" stroke:none;fill-rule:nonzero;fill:#d4def9;fill-opacity:1;" d="M 648.730469 206.265625 C 651.914062 205.507812 654.035156 207.019531 654.488281 209.292969 C 654.792969 210.957031 654.335938 212.773438 652.367188 213.835938 L 656.761719 218.527344 L 653.578125 219.285156 L 649.488281 214.742188 L 648.277344 215.046875 L 649.488281 220.347656 L 646.761719 220.953125 L 643.730469 207.476562 Z M 649.035156 208.535156 L 646.761719 208.988281 L 647.671875 212.925781 L 649.941406 212.472656 C 651.457031 212.167969 651.914062 211.261719 651.609375 209.898438 C 651.457031 208.6875 650.550781 208.082031 649.035156 208.535156 Z M 649.035156 208.535156 "/><path style=" stroke:none;fill-rule:nonzero;fill:#d4def9;fill-opacity:1;" d="M 669.335938 208.6875 C 670.246094 212.773438 668.125 216.105469 663.730469 217.015625 L 659.035156 218.074219 L 656.003906 204.597656 L 660.699219 203.539062 C 665.09375 202.480469 668.429688 204.597656 669.335938 208.6875 Z M 663.125 214.742188 C 666.003906 214.136719 667.214844 212.167969 666.609375 209.292969 C 666.003906 206.414062 664.035156 205.203125 661.15625 205.808594 L 659.1875 206.265625 L 661.15625 215.199219 Z M 663.125 214.742188 "/><path style=" stroke:none;fill-rule:nonzero;fill:#263156;fill-opacity:1;" d="M 551.152344 471.699219 C 550.699219 475.332031 594.03125 482.601562 594.335938 478.816406 C 594.488281 464.582031 596.609375 452.164062 598.273438 441.867188 C 598.578125 440.203125 598.730469 438.539062 599.03125 436.871094 C 601.304688 420.820312 600.851562 410.375 585.242188 405.527344 L 572.214844 402.5 C 555.546875 402.5 554.332031 408.859375 554.484375 423.699219 C 554.484375 428.542969 554.789062 434.449219 554.484375 441.261719 C 554.332031 449.894531 553.578125 459.886719 551.152344 471.699219 Z M 551.152344 471.699219 "/><path style=" stroke:none;fill-rule:nonzero;fill:#e25469;fill-opacity:1;" d="M 574.941406 397.199219 C 573.878906 400.988281 572.515625 401.59375 572.820312 403.558594 C 573.273438 406.589844 581.910156 416.734375 584.335938 410.070312 L 584.488281 409.464844 L 586.304688 402.804688 C 590.394531 405.074219 592.0625 402.046875 593.425781 396.746094 C 593.425781 396.59375 593.578125 396.292969 593.578125 396.140625 C 594.335938 392.507812 595.09375 387.964844 596.304688 383.421875 C 591.910156 367.070312 568.726562 369.792969 576.152344 393.113281 C 576 393.113281 576 393.566406 574.941406 397.199219 Z M 574.941406 397.199219 "/><path style=" stroke:none;fill-rule:nonzero;fill:#263156;fill-opacity:1;" d="M 576 393.113281 C 576.304688 393.113281 576.605469 385.085938 578.273438 385.390625 C 579.484375 385.691406 579.484375 387.660156 579.335938 389.480469 L 581.152344 389.328125 C 581.304688 385.84375 582.363281 381.605469 583.425781 380.847656 C 585.546875 379.484375 589.789062 382.96875 594.335938 384.632812 C 596.003906 385.238281 597.367188 384.480469 598.273438 383.269531 C 599.03125 382.363281 599.488281 381 599.941406 379.9375 C 600.546875 378.121094 600.09375 376.152344 598.578125 374.941406 C 595.246094 372.21875 590.699219 372.824219 585.546875 371.761719 C 579.03125 370.398438 577.214844 374.1875 575.09375 379.484375 C 572.972656 384.9375 575.699219 393.113281 576 393.113281 Z M 576 393.113281 "/><path style=" stroke:none;fill-rule:nonzero;fill:#263156;fill-opacity:1;" d="M 581.910156 384.785156 C 578.425781 383.875 574.941406 379.9375 574.941406 379.9375 C 574.941406 379.9375 574.03125 381.152344 574.183594 383.121094 C 574.335938 385.085938 579.03125 385.996094 581.304688 386.753906 C 583.578125 387.511719 583.878906 389.933594 585.851562 391.144531 C 587.820312 392.355469 593.425781 393.414062 594.335938 392.808594 C 595.09375 392.203125 595.394531 387.8125 595.394531 387.8125 C 591.609375 386.300781 585.394531 385.691406 581.910156 384.785156 Z M 589.488281 390.539062 C 588.730469 390.539062 588.121094 389.933594 588.121094 389.328125 C 588.121094 388.722656 588.730469 388.117188 589.488281 388.117188 C 590.246094 388.117188 590.851562 388.722656 590.851562 389.328125 C 590.851562 389.933594 590.246094 390.539062 589.488281 390.539062 Z M 593.425781 391.144531 C 592.820312 391.144531 592.214844 390.691406 592.214844 390.085938 C 592.214844 389.480469 592.667969 389.023438 593.425781 389.023438 C 594.03125 389.023438 594.636719 389.480469 594.636719 390.085938 C 594.636719 390.691406 594.03125 391.144531 593.425781 391.144531 Z M 593.425781 391.144531 "/><path style=" stroke:none;fill-rule:nonzero;fill:#263156;fill-opacity:1;" d="M 574.484375 381.300781 L 571 381.605469 C 571 381.605469 572.363281 384.480469 572.363281 384.480469 C 572.363281 384.480469 574.636719 383.421875 574.636719 383.421875 Z M 574.484375 381.300781 "/><path style=" stroke:none;fill-rule:nonzero;fill:#263156;fill-opacity:1;" d="M 575.242188 380.546875 C 575.242188 380.242188 573.878906 377.0625 573.425781 377.214844 C 572.0625 377.667969 570.699219 379.9375 571.457031 380.242188 C 572.214844 380.546875 574.484375 382.210938 574.484375 382.210938 Z M 575.242188 380.546875 "/><path style=" stroke:none;fill-rule:nonzero;fill:#263156;fill-opacity:1;" d="M 593.878906 390.085938 C 593.878906 390.25 593.820312 390.394531 593.703125 390.511719 C 593.585938 390.632812 593.441406 390.691406 593.273438 390.691406 C 593.105469 390.691406 592.964844 390.632812 592.847656 390.511719 C 592.726562 390.394531 592.667969 390.25 592.667969 390.085938 C 592.667969 389.917969 592.726562 389.773438 592.847656 389.65625 C 592.964844 389.539062 593.105469 389.480469 593.273438 389.480469 C 593.441406 389.480469 593.585938 389.539062 593.703125 389.65625 C 593.820312 389.773438 593.878906 389.917969 593.878906 390.085938 Z M 593.878906 390.085938 "/><path style=" stroke:none;fill-rule:nonzero;fill:#263156;fill-opacity:1;" d="M 590.394531 389.328125 C 590.394531 389.496094 590.335938 389.636719 590.21875 389.753906 C 590.101562 389.875 589.957031 389.933594 589.789062 389.933594 C 589.621094 389.933594 589.480469 389.875 589.359375 389.753906 C 589.242188 389.636719 589.183594 389.496094 589.183594 389.328125 C 589.183594 389.160156 589.242188 389.015625 589.359375 388.898438 C 589.480469 388.78125 589.621094 388.722656 589.789062 388.722656 C 589.957031 388.722656 590.101562 388.78125 590.21875 388.898438 C 590.335938 389.015625 590.394531 389.160156 590.394531 389.328125 Z M 590.394531 389.328125 "/><path style=" stroke:none;fill-rule:nonzero;fill:#e25469;fill-opacity:1;" d="M 560.847656 405.378906 C 551.910156 406.285156 539.183594 453.074219 545.546875 453.527344 C 554.332031 458.675781 575.546875 406.589844 560.847656 405.378906 Z M 560.847656 405.378906 "/><path style=" stroke:none;fill-rule:nonzero;fill:#e25469;fill-opacity:1;" d="M 562.363281 432.632812 L 556.304688 448.226562 C 556.304688 448.226562 570.09375 462.613281 573.425781 465.945312 C 576.757812 469.277344 585.242188 479.875 585.242188 479.875 L 580.699219 484.570312 C 580.699219 484.570312 547.820312 462.007812 544.183594 452.769531 C 541.453125 445.65625 547.96875 427.9375 547.96875 427.9375 Z M 562.363281 432.632812 "/><path style=" stroke:none;fill-rule:nonzero;fill:#e25469;fill-opacity:1;" d="M 545.394531 447.773438 C 544.484375 449.136719 544.484375 450.800781 545.089844 452.316406 C 550.394531 463.671875 589.335938 492.140625 590.246094 488.65625 C 591.757812 486.535156 552.210938 437.78125 545.394531 447.773438 Z M 545.394531 447.773438 "/><path style=" stroke:none;fill-rule:nonzero;fill:#e25469;fill-opacity:1;" d="M 596.457031 492.289062 C 596.457031 492.289062 596.304688 492.441406 596.304688 492.441406 L 593.578125 493.351562 C 593.125 493.652344 591.609375 493.503906 591.152344 493.351562 L 589.03125 492.59375 C 587.0625 491.835938 585.394531 490.625 583.878906 489.109375 L 581.152344 485.175781 L 580.546875 484.417969 L 581.457031 483.507812 L 584.335938 480.480469 L 584.941406 479.722656 L 585.394531 479.722656 L 588.578125 479.875 C 589.488281 479.875 590.394531 480.175781 591.304688 480.632812 L 594.335938 483.507812 C 594.335938 483.507812 593.578125 483.960938 592.214844 483.507812 C 591.609375 483.355469 590.699219 483.355469 589.941406 483.355469 L 591.757812 484.71875 L 596.152344 488.503906 C 597.515625 489.714844 597.515625 491.382812 596.457031 492.289062 Z M 596.457031 492.289062 "/><path style=" stroke:none;fill-rule:nonzero;fill:#263156;fill-opacity:1;" d="M 546.605469 427.9375 C 548.273438 422.640625 556 402.5 563.121094 404.46875 C 571.757812 406.890625 567.0625 419.15625 566.605469 421.277344 C 566 423.394531 562.515625 432.785156 562.515625 432.785156 Z M 546.605469 427.9375 "/><path style=" stroke:none;fill-rule:nonzero;fill:#e25469;fill-opacity:1;" d="M 95.835938 406.4375 C 89.167969 412.191406 105.230469 454.890625 110.53125 451.863281 C 120.53125 451.105469 108.410156 399.320312 95.835938 406.4375 Z M 95.835938 406.4375 "/><path style=" stroke:none;fill-rule:nonzero;fill:#e25469;fill-opacity:1;" d="M 112.804688 430.511719 L 115.835938 447.015625 L 124.925781 450.046875 L 124.320312 458.375 C 124.320312 458.375 109.773438 458.375 106.136719 453.375 C 102.5 448.378906 99.320312 433.84375 99.320312 433.84375 Z M 112.804688 430.511719 "/><path style=" stroke:none;fill-rule:nonzero;fill:#263156;fill-opacity:1;" d="M 113.714844 430.511719 L 110.230469 431.574219 L 104.773438 433.085938 L 98.867188 434.753906 L 86.441406 400.683594 C 109.472656 399.773438 110.078125 418.097656 113.714844 430.511719 Z M 113.714844 430.511719 "/><path style=" stroke:none;fill-rule:nonzero;fill:#e25469;fill-opacity:1;" d="M 107.046875 452.316406 C 107.046875 453.679688 107.957031 454.738281 109.167969 455.34375 C 118.261719 460.039062 139.925781 458.675781 139.472656 455.496094 C 139.019531 453.527344 106.59375 442.472656 107.046875 452.316406 Z M 107.046875 452.316406 "/><path style=" stroke:none;fill-rule:nonzero;fill:#e25469;fill-opacity:1;" d="M 135.683594 453.832031 L 135.230469 453.527344 L 136.289062 452.921875 L 138.109375 452.015625 C 138.5625 451.710938 139.167969 451.710938 139.625 451.710938 L 141.898438 452.316406 C 141.898438 452.316406 142.199219 452.921875 140.988281 452.921875 C 140.683594 452.921875 140.230469 453.226562 139.777344 453.527344 L 141.140625 453.679688 L 144.320312 454.4375 C 145.078125 454.589844 145.988281 455.496094 145.835938 456.40625 C 145.835938 456.40625 145.535156 457.769531 143.867188 458.070312 L 141.746094 458.675781 C 140.535156 458.828125 139.777344 459.128906 138.5625 458.675781 L 135.683594 457.464844 Z M 135.683594 453.832031 "/><path style=" stroke:none;fill-rule:nonzero;fill:#e25469;fill-opacity:1;" d="M 93.257812 463.671875 C 80.226562 464.128906 86.742188 476.242188 89.320312 486.839844 C 94.015625 503.496094 91.59375 525.300781 98.410156 527.570312 C 116.441406 532.871094 110.078125 468.972656 105.078125 466.09375 C 102.652344 464.734375 97.652344 464.128906 93.257812 463.671875 Z M 93.257812 463.671875 "/><path style=" stroke:none;fill-rule:nonzero;fill:#e25469;fill-opacity:1;" d="M 105.53125 521.96875 C 92.804688 513.035156 94.320312 587.683594 97.957031 604.640625 C 101.441406 621.601562 104.925781 595.859375 107.199219 568.605469 C 109.472656 541.5 110.53125 525.449219 105.53125 521.96875 Z M 105.53125 521.96875 "/><path style=" stroke:none;fill-rule:nonzero;fill:#e25469;fill-opacity:1;" d="M 95.835938 601.765625 L 96.136719 609.183594 L 105.53125 609.335938 L 105.53125 602.671875 Z M 95.835938 601.765625 "/><path style=" stroke:none;fill-rule:nonzero;fill:#263156;fill-opacity:1;" d="M 106.289062 609.488281 C 106.289062 609.488281 108.257812 613.273438 114.773438 618.269531 C 121.289062 623.265625 123.109375 622.207031 123.109375 624.023438 C 123.261719 625.839844 95.230469 624.328125 95.230469 624.328125 L 95.835938 609.035156 C 95.835938 609.035156 106.289062 609.035156 106.289062 609.488281 Z M 106.289062 609.488281 "/><path style=" stroke:none;fill-rule:nonzero;fill:#e25469;fill-opacity:1;" d="M 79.320312 463.976562 C 66.589844 461.402344 66.742188 475.179688 66.742188 486.082031 C 67.347656 503.34375 63.410156 523.484375 69.46875 527.269531 C 85.835938 536.65625 90.378906 470.941406 86.289062 467.003906 C 84.167969 465.1875 83.5625 465.339844 79.320312 463.976562 Z M 79.320312 463.976562 "/><path style=" stroke:none;fill-rule:nonzero;fill:#e25469;fill-opacity:1;" d="M 76.136719 521.96875 C 69.621094 517.425781 64.015625 583.292969 68.5625 604.640625 C 72.046875 621.601562 75.53125 595.859375 77.804688 568.605469 C 80.078125 541.5 81.136719 525.449219 76.136719 521.96875 Z M 76.136719 521.96875 "/><path style=" stroke:none;fill-rule:nonzero;fill:#e25469;fill-opacity:1;" d="M 67.046875 604.945312 L 66.894531 611.152344 L 76.894531 611.152344 L 76.894531 605.703125 Z M 67.046875 604.945312 "/><path style=" stroke:none;fill-rule:nonzero;fill:#263156;fill-opacity:1;" d="M 66.894531 611 C 66.742188 613.425781 64.167969 621.902344 64.167969 624.023438 C 80.078125 624.476562 79.621094 627.65625 77.046875 611 Z M 66.894531 611 "/><path style=" stroke:none;fill-rule:nonzero;fill:#3e4d77;fill-opacity:1;" d="M 109.167969 468.820312 C 109.167969 468.820312 113.714844 521.363281 113.410156 529.085938 C 113.109375 536.808594 105.683594 603.429688 105.683594 603.429688 L 95.53125 602.976562 C 95.53125 602.976562 91.441406 565.425781 94.621094 529.539062 L 88.714844 496.078125 L 77.347656 605.703125 L 66.589844 605.703125 C 66.589844 605.703125 66.136719 538.625 65.53125 528.023438 C 64.925781 517.425781 67.347656 467.308594 67.347656 467.308594 Z M 109.167969 468.820312 "/><path style=" stroke:none;fill-rule:nonzero;fill:#263156;fill-opacity:1;" d="M 109.167969 468.820312 C 109.320312 471.394531 88.410156 471.242188 76.136719 469.882812 C 70.984375 469.277344 67.199219 468.367188 67.199219 467.308594 C 68.410156 448.226562 66.289062 434.148438 64.925781 423.851562 C 62.652344 407.800781 62.046875 400.988281 78.863281 398.867188 L 91.742188 400.230469 C 103.109375 402.199219 107.046875 408.101562 108.257812 417.339844 C 109.773438 429.300781 106.59375 446.867188 109.167969 468.820312 Z M 109.167969 468.820312 "/><path style=" stroke:none;fill-rule:nonzero;fill:#3e4d77;fill-opacity:1;" d="M 97.519531 453.351562 L 137.824219 453.75 L 137.804688 455.71875 L 97.5 455.320312 Z M 97.519531 453.351562 "/><path style=" stroke:none;fill-rule:nonzero;fill:#3e4d77;fill-opacity:1;" d="M 148.261719 455.800781 L 110.835938 455.34375 L 121.59375 430.058594 L 159.019531 430.359375 Z M 148.261719 455.800781 "/><path style=" stroke:none;fill-rule:nonzero;fill:#3e4d77;fill-opacity:1;" d="M 149.320312 455.800781 L 111.894531 455.496094 L 122.652344 430.058594 L 160.078125 430.359375 Z M 149.320312 455.800781 "/><path style=" stroke:none;fill-rule:nonzero;fill:#d4def9;fill-opacity:1;" d="M 138.234375 440.3125 C 138.492188 440.417969 138.710938 440.601562 138.886719 440.855469 C 139.0625 441.109375 139.183594 441.421875 139.246094 441.785156 C 139.3125 442.148438 139.316406 442.542969 139.257812 442.960938 C 139.203125 443.378906 139.089844 443.792969 138.921875 444.199219 C 138.753906 444.609375 138.542969 444.980469 138.285156 445.316406 C 138.03125 445.652344 137.75 445.925781 137.449219 446.140625 C 137.144531 446.351562 136.839844 446.488281 136.535156 446.546875 C 136.230469 446.601562 135.949219 446.578125 135.6875 446.46875 C 135.429688 446.363281 135.210938 446.183594 135.035156 445.925781 C 134.859375 445.671875 134.738281 445.359375 134.675781 444.996094 C 134.609375 444.632812 134.605469 444.242188 134.664062 443.820312 C 134.71875 443.402344 134.832031 442.992188 135 442.582031 C 135.167969 442.175781 135.378906 441.800781 135.636719 441.464844 C 135.890625 441.128906 136.171875 440.855469 136.472656 440.640625 C 136.777344 440.429688 137.082031 440.292969 137.386719 440.238281 C 137.691406 440.179688 137.972656 440.203125 138.234375 440.3125 Z M 138.234375 440.3125 "/><path style=" stroke:none;fill-rule:nonzero;fill:#e25469;fill-opacity:1;" d="M 91.742188 396.445312 L 91.742188 403.710938 C 91.136719 410.375 80.683594 403.105469 79.472656 400.378906 C 78.714844 398.5625 79.925781 397.65625 79.925781 394.019531 C 79.925781 390.234375 79.925781 389.933594 79.925781 389.933594 C 67.347656 369.945312 88.257812 361.921875 96.289062 376.003906 C 96.289062 380.695312 96.742188 385.085938 96.894531 388.722656 C 96.894531 394.324219 96.136719 397.65625 91.742188 396.445312 Z M 91.742188 396.445312 "/><path style=" stroke:none;fill-rule:nonzero;fill:#263156;fill-opacity:1;" d="M 99.015625 371.914062 C 99.167969 374.035156 98.410156 376.003906 96.441406 377.214844 C 94.621094 378.273438 92.351562 378.121094 90.53125 377.367188 C 88.5625 376.609375 86.441406 375.398438 84.320312 376.457031 C 81.441406 377.972656 83.714844 382.511719 83.714844 384.9375 C 83.257812 385.238281 82.5 385.390625 82.046875 385.691406 C 81.742188 384.027344 81.289062 382.363281 80.078125 382.511719 C 78.5625 382.511719 80.078125 390.085938 79.925781 390.085938 C 79.773438 390.085938 77.957031 387.511719 76.742188 384.027344 C 76.441406 383.421875 76.289062 382.664062 76.136719 381.90625 C 75.078125 377.214844 75.378906 369.945312 80.984375 368.433594 C 83.257812 367.824219 85.683594 367.21875 87.957031 366.160156 C 90.078125 365.101562 92.351562 364.039062 94.773438 364.949219 C 97.199219 366.007812 98.867188 369.039062 99.015625 371.914062 Z M 99.015625 371.914062 "/><path style=" stroke:none;fill-rule:nonzero;fill:#e25469;fill-opacity:1;" d="M 67.347656 405.074219 C 60.378906 410.070312 71.441406 455.195312 76.894531 452.621094 C 86.742188 453.074219 80.226562 399.472656 67.347656 405.074219 Z M 67.347656 405.074219 "/><path style=" stroke:none;fill-rule:nonzero;fill:#e25469;fill-opacity:1;" d="M 81.59375 433.539062 L 83.257812 443.230469 L 98.867188 439.902344 L 101.289062 447.472656 C 101.289062 447.472656 79.773438 457.917969 75.226562 453.527344 C 70.683594 449.136719 67.652344 435.207031 67.652344 435.207031 Z M 81.59375 433.539062 "/><path style=" stroke:none;fill-rule:nonzero;fill:#263156;fill-opacity:1;" d="M 77.652344 409.464844 L 82.351562 433.691406 L 66.742188 436.265625 C 66.742188 436.265625 62.5 414.160156 62.957031 408.558594 C 63.105469 407.496094 63.5625 406.285156 64.320312 405.226562 C 64.320312 405.226562 64.320312 405.074219 64.46875 405.074219 C 68.257812 399.925781 76.289062 403.257812 77.652344 409.464844 Z M 77.652344 409.464844 "/><path style=" stroke:none;fill-rule:nonzero;fill:#e25469;fill-opacity:1;" d="M 74.925781 452.46875 C 75.53125 453.527344 76.742188 454.285156 77.957031 454.285156 C 87.804688 454.890625 122.199219 438.386719 120.078125 436.417969 C 119.320312 434.601562 70.53125 443.988281 74.925781 452.46875 Z M 74.925781 452.46875 "/><path style=" stroke:none;fill-rule:nonzero;fill:#e25469;fill-opacity:1;" d="M 114.167969 436.871094 L 113.714844 436.722656 L 114.472656 435.8125 L 115.683594 434.296875 C 115.988281 433.84375 116.441406 433.539062 116.894531 433.390625 L 119.167969 433.085938 C 119.167969 433.085938 119.773438 433.539062 118.5625 433.996094 C 118.261719 434.148438 117.957031 434.601562 117.652344 434.902344 L 118.867188 434.601562 L 121.746094 433.84375 C 122.503906 433.691406 123.410156 437.328125 122.199219 438.234375 L 121.59375 438.6875 C 120.683594 439.292969 119.925781 439.902344 118.867188 440.050781 L 115.835938 440.203125 Z M 114.167969 436.871094 "/><path style=" stroke:none;fill-rule:nonzero;fill:#263156;fill-opacity:1;" d="M 91.742188 396.445312 C 89.925781 395.839844 88.257812 395.082031 87.5 394.324219 C 85.078125 392.203125 82.046875 385.542969 82.046875 385.542969 L 83.714844 384.785156 C 83.714844 384.785156 85.53125 389.628906 88.714844 389.480469 C 91.894531 389.328125 94.925781 387.660156 96.894531 388.722656 C 96.894531 394.324219 96.136719 397.65625 91.742188 396.445312 Z M 91.742188 396.445312 "/><path style=" stroke:none;fill-rule:nonzero;fill:#e25469;fill-opacity:1;" d="M 91.894531 392.054688 C 91.894531 392.054688 93.257812 390.992188 94.925781 391.144531 C 95.378906 391.144531 96.136719 391.902344 96.289062 392.355469 C 96.441406 392.203125 93.714844 394.019531 91.894531 392.054688 Z M 91.894531 392.054688 "/><path style=" stroke:none;fill-rule:nonzero;fill:#d4def9;fill-opacity:1;" d="M 121.140625 156.449219 C 121.140625 156.871094 121.058594 157.273438 120.898438 157.664062 C 120.734375 158.054688 120.503906 158.398438 120.207031 158.695312 C 119.910156 158.996094 119.5625 159.222656 119.175781 159.386719 C 118.785156 159.546875 118.378906 159.628906 117.957031 159.628906 C 117.535156 159.628906 117.128906 159.546875 116.738281 159.386719 C 116.347656 159.222656 116.003906 158.996094 115.707031 158.695312 C 115.410156 158.398438 115.179688 158.054688 115.015625 157.664062 C 114.855469 157.273438 114.773438 156.871094 114.773438 156.449219 C 114.773438 156.027344 114.855469 155.621094 115.015625 155.230469 C 115.179688 154.839844 115.410156 154.496094 115.707031 154.199219 C 116.003906 153.902344 116.347656 153.671875 116.738281 153.511719 C 117.128906 153.347656 117.535156 153.269531 117.957031 153.269531 C 118.378906 153.269531 118.785156 153.347656 119.175781 153.511719 C 119.5625 153.671875 119.910156 153.902344 120.207031 154.199219 C 120.503906 154.496094 120.734375 154.839844 120.898438 155.230469 C 121.058594 155.621094 121.140625 156.027344 121.140625 156.449219 Z M 121.140625 156.449219 "/><path style=" stroke:none;fill-rule:nonzero;fill:#d4def9;fill-opacity:1;" d="M 121.140625 174.011719 C 121.140625 174.433594 121.058594 174.839844 120.898438 175.230469 C 120.734375 175.617188 120.503906 175.960938 120.207031 176.261719 C 119.910156 176.558594 119.5625 176.789062 119.175781 176.949219 C 118.785156 177.113281 118.378906 177.191406 117.957031 177.191406 C 117.535156 177.191406 117.128906 177.113281 116.738281 176.949219 C 116.347656 176.789062 116.003906 176.558594 115.707031 176.261719 C 115.410156 175.960938 115.179688 175.617188 115.015625 175.230469 C 114.855469 174.839844 114.773438 174.433594 114.773438 174.011719 C 114.773438 173.589844 114.855469 173.183594 115.015625 172.796875 C 115.179688 172.40625 115.410156 172.0625 115.707031 171.765625 C 116.003906 171.464844 116.347656 171.234375 116.738281 171.074219 C 117.128906 170.914062 117.535156 170.832031 117.957031 170.832031 C 118.378906 170.832031 118.785156 170.914062 119.175781 171.074219 C 119.5625 171.234375 119.910156 171.464844 120.207031 171.765625 C 120.503906 172.0625 120.734375 172.40625 120.898438 172.796875 C 121.058594 173.183594 121.140625 173.589844 121.140625 174.011719 Z M 121.140625 174.011719 "/><path style=" stroke:none;fill-rule:nonzero;fill:#d4def9;fill-opacity:1;" d="M 121.140625 191.578125 C 121.140625 192 121.058594 192.402344 120.898438 192.792969 C 120.734375 193.183594 120.503906 193.527344 120.207031 193.824219 C 119.910156 194.125 119.5625 194.351562 119.175781 194.515625 C 118.785156 194.675781 118.378906 194.757812 117.957031 194.757812 C 117.535156 194.757812 117.128906 194.675781 116.738281 194.515625 C 116.347656 194.351562 116.003906 194.125 115.707031 193.824219 C 115.410156 193.527344 115.179688 193.183594 115.015625 192.792969 C 114.855469 192.402344 114.773438 192 114.773438 191.578125 C 114.773438 191.15625 114.855469 190.75 115.015625 190.359375 C 115.179688 189.96875 115.410156 189.625 115.707031 189.328125 C 116.003906 189.03125 116.347656 188.800781 116.738281 188.640625 C 117.128906 188.476562 117.535156 188.398438 117.957031 188.398438 C 118.378906 188.398438 118.785156 188.476562 119.175781 188.640625 C 119.5625 188.800781 119.910156 189.03125 120.207031 189.328125 C 120.503906 189.625 120.734375 189.96875 120.898438 190.359375 C 121.058594 190.75 121.140625 191.15625 121.140625 191.578125 Z M 121.140625 191.578125 "/><path style=" stroke:none;fill-rule:nonzero;fill:#d4def9;fill-opacity:1;" d="M 103.5625 156.449219 C 103.5625 156.871094 103.480469 157.273438 103.320312 157.664062 C 103.160156 158.054688 102.929688 158.398438 102.628906 158.695312 C 102.332031 158.996094 101.988281 159.222656 101.597656 159.386719 C 101.207031 159.546875 100.800781 159.628906 100.378906 159.628906 C 99.957031 159.628906 99.550781 159.546875 99.164062 159.386719 C 98.773438 159.222656 98.429688 158.996094 98.128906 158.695312 C 97.832031 158.398438 97.601562 158.054688 97.441406 157.664062 C 97.28125 157.273438 97.199219 156.871094 97.199219 156.449219 C 97.199219 156.027344 97.28125 155.621094 97.441406 155.230469 C 97.601562 154.839844 97.832031 154.496094 98.128906 154.199219 C 98.429688 153.902344 98.773438 153.671875 99.164062 153.511719 C 99.550781 153.347656 99.957031 153.269531 100.378906 153.269531 C 100.800781 153.269531 101.207031 153.347656 101.597656 153.511719 C 101.988281 153.671875 102.332031 153.902344 102.628906 154.199219 C 102.929688 154.496094 103.160156 154.839844 103.320312 155.230469 C 103.480469 155.621094 103.5625 156.027344 103.5625 156.449219 Z M 103.5625 156.449219 "/><path style=" stroke:none;fill-rule:nonzero;fill:#d4def9;fill-opacity:1;" d="M 103.5625 174.011719 C 103.5625 174.433594 103.480469 174.839844 103.320312 175.230469 C 103.160156 175.617188 102.929688 175.960938 102.628906 176.261719 C 102.332031 176.558594 101.988281 176.789062 101.597656 176.949219 C 101.207031 177.113281 100.800781 177.191406 100.378906 177.191406 C 99.957031 177.191406 99.550781 177.113281 99.164062 176.949219 C 98.773438 176.789062 98.429688 176.558594 98.128906 176.261719 C 97.832031 175.960938 97.601562 175.617188 97.441406 175.230469 C 97.28125 174.839844 97.199219 174.433594 97.199219 174.011719 C 97.199219 173.589844 97.28125 173.183594 97.441406 172.796875 C 97.601562 172.40625 97.832031 172.0625 98.128906 171.765625 C 98.429688 171.464844 98.773438 171.234375 99.164062 171.074219 C 99.550781 170.914062 99.957031 170.832031 100.378906 170.832031 C 100.800781 170.832031 101.207031 170.914062 101.597656 171.074219 C 101.988281 171.234375 102.332031 171.464844 102.628906 171.765625 C 102.929688 172.0625 103.160156 172.40625 103.320312 172.796875 C 103.480469 173.183594 103.5625 173.589844 103.5625 174.011719 Z M 103.5625 174.011719 "/><path style=" stroke:none;fill-rule:nonzero;fill:#d4def9;fill-opacity:1;" d="M 103.5625 191.578125 C 103.5625 192 103.480469 192.402344 103.320312 192.792969 C 103.160156 193.183594 102.929688 193.527344 102.628906 193.824219 C 102.332031 194.125 101.988281 194.351562 101.597656 194.515625 C 101.207031 194.675781 100.800781 194.757812 100.378906 194.757812 C 99.957031 194.757812 99.550781 194.675781 99.164062 194.515625 C 98.773438 194.351562 98.429688 194.125 98.128906 193.824219 C 97.832031 193.527344 97.601562 193.183594 97.441406 192.792969 C 97.28125 192.402344 97.199219 192 97.199219 191.578125 C 97.199219 191.15625 97.28125 190.75 97.441406 190.359375 C 97.601562 189.96875 97.832031 189.625 98.128906 189.328125 C 98.429688 189.03125 98.773438 188.800781 99.164062 188.640625 C 99.550781 188.476562 99.957031 188.398438 100.378906 188.398438 C 100.800781 188.398438 101.207031 188.476562 101.597656 188.640625 C 101.988281 188.800781 102.332031 189.03125 102.628906 189.328125 C 102.929688 189.625 103.160156 189.96875 103.320312 190.359375 C 103.480469 190.75 103.5625 191.15625 103.5625 191.578125 Z M 103.5625 191.578125 "/><path style=" stroke:none;fill-rule:nonzero;fill:#263156;fill-opacity:1;" d="M 114.773438 272.585938 C 109.167969 272.585938 104.320312 269.707031 101.441406 264.863281 C 98.714844 260.015625 98.714844 254.414062 101.441406 249.570312 L 149.777344 165.988281 C 152.503906 161.140625 157.503906 158.265625 163.109375 158.265625 C 168.714844 158.265625 173.566406 161.140625 176.445312 165.988281 L 224.777344 249.570312 C 227.503906 254.414062 227.503906 260.015625 224.777344 264.863281 C 222.050781 269.707031 217.050781 272.585938 211.445312 272.585938 Z M 114.773438 272.585938 "/><path style=" stroke:none;fill-rule:nonzero;fill:#ffffff;fill-opacity:1;" d="M 163.109375 161.292969 C 167.503906 161.292969 171.59375 163.566406 173.714844 167.5 L 222.050781 251.082031 C 224.324219 254.867188 224.324219 259.5625 222.050781 263.347656 C 219.777344 267.132812 215.839844 269.554688 211.445312 269.554688 L 114.773438 269.554688 C 110.378906 269.554688 106.289062 267.285156 104.167969 263.347656 C 101.894531 259.5625 101.894531 254.867188 104.167969 251.082031 L 152.503906 167.5 C 154.625 163.714844 158.714844 161.292969 163.109375 161.292969 M 163.109375 155.386719 C 156.441406 155.386719 150.535156 158.871094 147.199219 164.472656 L 98.867188 248.054688 C 95.53125 253.808594 95.53125 260.621094 98.867188 266.375 C 102.199219 272.128906 108.109375 275.460938 114.773438 275.460938 L 211.292969 275.460938 C 217.960938 275.460938 223.871094 271.980469 227.203125 266.375 C 230.535156 260.621094 230.535156 253.808594 227.203125 248.054688 L 178.867188 164.472656 C 175.6875 158.71875 169.777344 155.386719 163.109375 155.386719 Z M 163.109375 155.386719 "/><path style=" stroke:none;fill-rule:nonzero;fill:#e25469;fill-opacity:1;" d="M 158.109375 170.832031 L 109.773438 254.414062 C 107.503906 258.199219 110.378906 263.046875 114.773438 263.046875 L 211.292969 263.046875 C 215.6875 263.046875 218.566406 258.199219 216.292969 254.414062 L 167.957031 170.832031 C 165.835938 166.894531 160.382812 166.894531 158.109375 170.832031 Z M 158.109375 170.832031 "/><path style=" stroke:none;fill-rule:nonzero;fill:#e25469;fill-opacity:1;" d="M 114.773438 260.925781 C 113.410156 260.925781 112.199219 260.167969 111.59375 259.109375 C 110.988281 257.898438 110.988281 256.535156 111.59375 255.476562 L 159.929688 171.890625 C 160.535156 170.679688 161.746094 170.074219 163.109375 170.074219 C 164.472656 170.074219 165.6875 170.832031 166.292969 171.890625 L 214.625 255.476562 C 215.234375 256.6875 215.234375 258.046875 214.625 259.109375 C 214.019531 260.320312 212.808594 260.925781 211.445312 260.925781 Z M 114.773438 260.925781 "/><path style=" stroke:none;fill-rule:nonzero;fill:#ffffff;fill-opacity:1;" d="M 162.957031 250.476562 C 159.929688 250.476562 157.65625 248.207031 157.65625 245.179688 C 157.65625 242.148438 159.929688 239.878906 162.957031 239.878906 C 165.835938 239.878906 168.261719 242.148438 168.261719 245.179688 C 168.261719 248.207031 165.835938 250.476562 162.957031 250.476562 Z M 162.65625 199.300781 C 165.078125 199.300781 167.050781 201.265625 166.898438 203.691406 L 166.140625 231.097656 C 166.140625 233.066406 164.472656 234.578125 162.65625 234.578125 C 160.683594 234.578125 159.171875 233.066406 159.171875 231.097656 L 158.414062 203.691406 C 158.261719 201.417969 160.230469 199.300781 162.65625 199.300781 Z M 162.65625 199.300781 "/><g clip-rule="nonzero" clip-path="url(#03d1b53109)"><path style=" stroke:none;fill-rule:nonzero;fill:#e25469;fill-opacity:1;" d="M 452.210938 132.675781 L 452.210938 184.308594 C 452.210938 184.308594 452.210938 184.460938 452.210938 184.460938 C 452.210938 185.367188 451.753906 186.125 451.148438 186.730469 C 450.542969 187.335938 449.785156 187.640625 448.875 187.640625 L 364.023438 187.640625 C 363.117188 187.640625 362.359375 187.335938 361.753906 186.730469 C 361.144531 186.125 360.691406 185.367188 360.691406 184.460938 C 360.691406 184.460938 360.691406 184.460938 360.691406 184.308594 L 360.691406 132.675781 C 360.691406 130.554688 362.359375 128.890625 364.480469 128.890625 L 448.269531 128.890625 C 450.542969 128.890625 452.210938 130.554688 452.210938 132.675781 Z M 452.210938 132.675781 "/></g><path style=" stroke:none;fill-rule:nonzero;fill:#e25469;fill-opacity:1;" d="M 452.210938 184.460938 C 452.210938 185.367188 451.753906 186.125 451.148438 186.730469 C 450.542969 187.335938 449.785156 187.640625 448.875 187.640625 L 364.023438 187.640625 C 363.117188 187.640625 362.359375 187.335938 361.753906 186.730469 C 361.144531 186.125 360.691406 185.367188 360.691406 184.460938 L 406.300781 144.941406 Z M 452.210938 184.460938 "/><path style=" stroke:none;fill-rule:nonzero;fill:#263156;fill-opacity:1;" d="M 451.753906 184.914062 L 406.449219 145.847656 L 361.449219 184.914062 L 360.386719 183.855469 L 406.449219 143.730469 L 452.664062 183.855469 Z M 451.753906 184.914062 "/><g clip-rule="nonzero" clip-path="url(#ac5a08b9df)"><path style=" stroke:none;fill-rule:nonzero;fill:#e25469;fill-opacity:1;" d="M 452.210938 132.675781 L 452.210938 138.277344 L 406.449219 175.375 L 360.84375 138.277344 L 360.84375 132.523438 C 360.84375 130.402344 362.511719 128.738281 364.632812 128.738281 L 448.421875 128.738281 C 450.542969 128.890625 452.210938 130.554688 452.210938 132.675781 Z M 452.210938 132.675781 "/></g><path style=" stroke:none;fill-rule:nonzero;fill:#263156;fill-opacity:1;" d="M 406.449219 176.433594 L 360.386719 138.882812 L 361.296875 137.671875 L 406.449219 174.464844 L 451.753906 137.671875 L 452.664062 138.882812 Z M 406.449219 176.433594 "/><path style=" stroke:none;fill-rule:nonzero;fill:#d4def9;fill-opacity:1;" d="M 562.96875 433.085938 L 562.214844 432.785156 L 566.605469 422.488281 L 567.363281 422.789062 Z M 562.96875 433.085938 "/><path style=" stroke:none;fill-rule:nonzero;fill:#d4def9;fill-opacity:1;" d="M 82.199219 433.84375 L 78.863281 418.246094 L 79.320312 418.097656 L 82.652344 433.691406 Z M 82.199219 433.84375 "/></g></svg>